<svg xmlns="http://www.w3.org/2000/svg" fill="none" viewBox="0 0 100 100"><path fill="#F9AB00" d="M95.333 87.485c.037 6.866-5.5 12.457-12.362 12.494-.51.004-1.024-.025-1.53-.087a12.745 12.745 0 0 1-10.877-12.917V13.003A12.75 12.75 0 0 1 81.461.084c6.817-.798 12.991 4.081 13.79 10.898q.087.751.082 1.51z"/><path fill="#E37400" d="M17.386 75.226c6.841 0 12.387 5.546 12.387 12.387 0 6.84-5.546 12.386-12.387 12.386C10.546 99.999 5 94.454 5 87.613s5.545-12.387 12.386-12.387m32.59-37.537C43.1 38.067 37.77 43.83 37.93 50.713V83.98c0 9.03 3.974 14.51 9.795 15.678 6.718 1.361 13.262-2.979 14.624-9.696q.253-1.236.247-2.498V50.138c.012-6.866-5.541-12.44-12.407-12.452-.07 0-.144 0-.214.004"/></svg>