<svg xmlns="http://www.w3.org/2000/svg" fill="none" viewBox="0 0 100 100"><path fill="#CD6799" d="M86.108 56.111c-3.489.018-6.52.859-9.06 2.1-.931-1.844-1.863-3.488-2.027-4.694-.183-1.406-.402-2.265-.183-3.945s1.206-4.073 1.187-4.256-.219-1.04-2.228-1.06c-2.01-.017-3.744.385-3.945.914-.201.53-.585 1.735-.84 2.977-.348 1.827-4.019 8.348-6.12 11.763-.675-1.333-1.26-2.502-1.388-3.434-.182-1.406-.401-2.264-.182-3.945.219-1.68 1.205-4.073 1.187-4.256s-.22-1.04-2.228-1.06c-2.01-.017-3.745.384-3.946.914-.2.53-.42 1.772-.84 2.977-.42 1.206-5.297 12.092-6.575 14.905a84 84 0 0 1-1.626 3.38s-.018.054-.073.145a45 45 0 0 1-.548 1.041v.019c-.274.493-.566.95-.712.95-.11 0-.311-1.316.036-3.106.73-3.78 2.466-9.662 2.448-9.863 0-.11.328-1.133-1.133-1.662-1.425-.53-1.936.347-2.064.347s-.219.31-.219.31 1.59-6.612-3.032-6.612c-2.886 0-6.868 3.16-8.84 6.01a2157 2157 0 0 0-6.722 3.67c-1.078.604-2.192 1.206-3.233 1.773-.073-.073-.146-.165-.22-.238-5.589-5.972-15.927-10.192-15.488-18.21.164-2.923 1.169-10.594 19.854-19.91 15.38-7.58 27.617-5.48 29.736-.822 3.032 6.649-6.557 18.996-22.448 20.786-6.064.676-9.242-1.662-10.046-2.538-.84-.914-.968-.968-1.279-.786-.511.274-.182 1.096 0 1.571.475 1.242 2.43 3.434 5.736 4.512 2.922.95 10.028 1.479 18.63-1.845 9.626-3.726 17.152-14.083 14.941-22.759-2.21-8.804-16.822-11.708-30.649-6.795-8.22 2.923-17.133 7.526-23.544 13.517C.808 36.019-.397 42.21.096 44.805 1.868 54.01 14.562 60.002 19.64 64.44c-.256.146-.493.274-.694.384-2.539 1.26-12.22 6.32-14.63 11.671-2.74 6.064.438 10.412 2.538 10.996 6.521 1.808 13.224-1.443 16.823-6.813 3.598-5.37 3.16-12.347 1.497-15.544-.018-.036-.036-.073-.073-.11.658-.383 1.334-.785 1.991-1.168a97 97 0 0 1 3.672-2.064c-.621 1.698-1.078 3.726-1.297 6.648-.274 3.434 1.132 7.89 2.977 9.644.822.767 1.79.786 2.411.786 2.156 0 3.124-1.79 4.201-3.909 1.315-2.594 2.503-5.608 2.503-5.608s-1.48 8.147 2.538 8.147c1.462 0 2.941-1.9 3.599-2.868v.018s.036-.054.11-.182c.145-.238.237-.384.237-.384v-.036c.584-1.023 1.9-3.343 3.854-7.197 2.52-4.968 4.95-11.178 4.95-11.178s.219 1.516.968 4.036c.438 1.48 1.351 3.105 2.082 4.676-.584.822-.95 1.279-.95 1.279l.018.018c-.474.621-.986 1.297-1.552 1.955-1.991 2.374-4.365 5.096-4.694 5.881-.384.932-.293 1.607.438 2.155.53.402 1.48.457 2.448.402 1.79-.128 3.05-.566 3.671-.84.968-.347 2.1-.877 3.16-1.662 1.954-1.443 3.142-3.507 3.032-6.229-.055-1.497-.548-2.995-1.15-4.402.182-.255.346-.511.529-.767 3.087-4.511 5.48-9.461 5.48-9.461s.219 1.516.968 4.036c.365 1.279 1.114 2.667 1.771 4.019-2.904 2.356-4.694 5.096-5.333 6.886-1.15 3.324-.256 4.822 1.443 5.169.767.164 1.863-.201 2.667-.548a12.2 12.2 0 0 0 3.379-1.735c1.954-1.443 3.835-3.452 3.726-6.174-.055-1.242-.384-2.466-.84-3.653 2.465-1.023 5.644-1.59 9.698-1.114 8.695 1.023 10.412 6.447 10.083 8.73s-2.155 3.526-2.758 3.91c-.603.383-.804.51-.749.785.073.402.365.383.877.31.712-.127 4.566-1.844 4.73-6.045.275-5.37-4.84-11.234-13.881-11.179m-67.07 22.613c-2.887 3.141-6.905 4.329-8.64 3.324-1.863-1.078-1.133-5.717 2.41-9.041 2.156-2.028 4.933-3.91 6.777-5.06.42-.256 1.041-.62 1.79-1.078.128-.073.201-.11.201-.11l.439-.273c1.296 4.749.054 8.932-2.978 12.238M40.041 64.44c-1.004 2.448-3.105 8.713-4.383 8.366-1.096-.293-1.772-5.041-.22-9.736.786-2.356 2.448-5.169 3.416-6.265 1.571-1.753 3.306-2.338 3.726-1.625.53.931-1.918 7.726-2.539 9.26m17.334 8.293c-.42.219-.822.365-1.004.255-.128-.073.182-.365.182-.365s2.174-2.338 3.032-3.397c.494-.621 1.078-1.352 1.7-2.174v.238c0 2.794-2.704 4.676-3.91 5.443m13.37-3.05c-.31-.22-.255-.95.786-3.234.402-.895 1.352-2.392 2.977-3.835.183.584.31 1.15.293 1.68-.019 3.525-2.54 4.84-4.055 5.388"/></svg>