<svg xmlns="http://www.w3.org/2000/svg" fill="none" viewBox="0 0 100 100"><path fill="#00749A" d="M7.107 49.999c0 16.979 9.867 31.65 24.175 38.604L10.82 32.543a42.7 42.7 0 0 0-3.714 17.456m71.85-2.165c0-5.3-1.904-8.972-3.538-11.83-2.174-3.533-4.211-6.525-4.211-10.058 0-3.943 2.99-7.613 7.202-7.613.19 0 .37.024.556.034C71.333 11.376 61.166 7.107 50 7.107c-14.985 0-28.17 7.689-35.839 19.334 1.007.03 1.956.05 2.76.05 4.487 0 11.432-.544 11.432-.544 2.312-.136 2.585 3.26.276 3.533 0 0-2.325.273-4.91.409l15.62 46.46 9.387-28.152-6.683-18.309c-2.31-.135-4.498-.409-4.498-.409-2.312-.135-2.04-3.67.27-3.533 0 0 7.084.544 11.299.544 4.486 0 11.431-.544 11.431-.544 2.314-.136 2.586 3.26.275 3.533 0 0-2.328.274-4.909.41l15.5 46.108L75.69 61.7c1.856-5.933 3.267-10.194 3.267-13.866"/><path fill="#00749A" d="m50.753 53.75-12.87 37.396a42.9 42.9 0 0 0 12.118 1.748 42.9 42.9 0 0 0 14.243-2.43 3.6 3.6 0 0 1-.305-.592zm36.885-24.33c.184 1.366.288 2.834.288 4.41 0 4.353-.812 9.246-3.261 15.364L71.563 87.075C84.315 79.64 92.893 65.824 92.893 50a42.66 42.66 0 0 0-5.255-20.58"/><path fill="#00749A" d="M50 0C22.43 0 0 22.43 0 49.999 0 77.57 22.43 100 50 100s50.003-22.429 50.003-50.002C100.003 22.429 77.569 0 50.001 0m0 97.708c-26.305 0-47.707-21.402-47.707-47.71C2.293 23.695 23.694 2.294 50 2.294c26.304 0 47.705 21.401 47.705 47.706 0 26.307-21.402 47.71-47.705 47.71"/></svg>