<?xml version="1.0" encoding="utf-8"?>
<!-- Generator: Adobe Illustrator 24.1.2, SVG Export Plug-In . SVG Version: 6.00 Build 0)  -->
<svg version="1.1" id="Layer_1" xmlns="http://www.w3.org/2000/svg" xmlns:xlink="http://www.w3.org/1999/xlink" x="0px" y="0px"
	 viewBox="0 0 131 39" style="enable-background:new 0 0 131 39;" xml:space="preserve">
<style type="text/css">
	.st0{fill:#B3D200;}
</style>
<path class="st0" d="M1.3,26H0v9.9h1.3V26z"/>
<path class="st0" d="M3.4,30.7c0-0.7,0-1.3-0.1-1.9h1.2L4.6,30l0,0C5,29.3,5.8,28.7,7,28.7c1,0,2.6,0.6,2.6,3V36H8.3v-4.1
	c0-1.1-0.4-2.1-1.7-2.1c-0.9,0-1.6,0.6-1.8,1.3c-0.1,0.2-0.1,0.4-0.1,0.6V36H3.4V30.7L3.4,30.7z"/>
<path class="st0" d="M11.3,34.6c0.4,0.2,1.1,0.5,1.8,0.5c1,0,1.4-0.5,1.4-1.1s-0.4-1-1.4-1.3c-1.3-0.5-1.9-1.2-1.9-2
	c0-1.1,1-2.1,2.5-2.1c0.7,0,1.4,0.2,1.8,0.4l-0.3,1c-0.3-0.2-0.8-0.4-1.5-0.4c-0.8,0-1.2,0.4-1.2,1s0.4,0.9,1.4,1.2
	c1.3,0.5,1.9,1.1,1.9,2.1c0,1.2-1,2.1-2.7,2.1c-0.8,0-1.5-0.2-2.1-0.5L11.3,34.6L11.3,34.6z"/>
<path class="st0" d="M23.4,34c0,0.7,0,1.4,0.1,1.9h-1.2l-0.1-1.2l0,0c-0.3,0.6-1.1,1.3-2.4,1.3c-1.2,0-2.5-0.6-2.5-3.1v-4.2h1.3v3.9
	c0,1.4,0.4,2.3,1.6,2.3c0.9,0,1.5-0.6,1.8-1.2c0.1-0.2,0.1-0.4,0.1-0.7v-4.4h1.3C23.4,28.6,23.4,34,23.4,34z"/>
<path class="st0" d="M25.3,31c0-0.8,0-1.6-0.1-2.2h1.2v1.4h0.1c0.3-1,1.1-1.6,2-1.6c0.2,0,0.3,0,0.4,0v1.2c-0.1,0-0.3,0-0.5,0
	c-0.9,0-1.6,0.7-1.8,1.7c0,0.2-0.1,0.4-0.1,0.6v3.8h-1.3L25.3,31L25.3,31z"/>
<path class="st0" d="M33.7,32.3c-1.5,0-3.1,0.2-3.1,1.6c0,0.8,0.6,1.2,1.3,1.2c1,0,1.6-0.6,1.8-1.2c0-0.1,0.1-0.3,0.1-0.4L33.7,32.3
	L33.7,32.3z M35,34.2c0,0.6,0,1.2,0.1,1.7h-1.2L33.8,35l0,0c-0.4,0.6-1.2,1.1-2.2,1.1c-1.5,0-2.2-1-2.2-2c0-1.7,1.6-2.7,4.4-2.6
	v-0.1c0-0.6-0.2-1.6-1.7-1.6c-0.7,0-1.4,0.2-1.9,0.5l-0.3-0.9c0.6-0.4,1.5-0.6,2.4-0.6c2.2,0,2.8,1.5,2.8,2.9L35,34.2L35,34.2z"/>
<path class="st0" d="M36.8,30.7c0-0.7,0-1.3-0.1-1.9H38V30l0,0c0.4-0.7,1.2-1.3,2.4-1.3c1,0,2.6,0.6,2.6,3V36h-1.3v-4.1
	c0-1.1-0.4-2.1-1.7-2.1c-0.9,0-1.6,0.6-1.8,1.3c-0.1,0.2-0.1,0.4-0.1,0.6V36h-1.3L36.8,30.7L36.8,30.7z"/>
<path class="st0" d="M50.2,35.7c-0.3,0.2-1.1,0.4-2.1,0.4c-2.2,0-3.7-1.5-3.7-3.6c0-2.2,1.5-3.8,3.9-3.8c0.8,0,1.5,0.2,1.8,0.4
	l-0.3,1c-0.3-0.2-0.8-0.3-1.5-0.3c-1.7,0-2.6,1.2-2.6,2.7c0,1.6,1.1,2.7,2.5,2.7c0.8,0,1.3-0.2,1.6-0.4L50.2,35.7L50.2,35.7z"/>
<path class="st0" d="M56,31.7c0-0.8-0.3-2.1-1.8-2.1c-1.3,0-1.9,1.2-2,2.1H56z M52.1,32.6c0,1.7,1.2,2.5,2.5,2.5c1,0,1.5-0.2,2-0.4
	l0.2,0.9c-0.5,0.2-1.3,0.5-2.4,0.5c-2.3,0-3.6-1.5-3.6-3.6s1.3-3.8,3.4-3.8c2.4,0,3,2,3,3.4c0,0.3,0,0.5,0,0.6h-5.1V32.6z"/>
<path class="st0" d="M62.9,34.9c0.3,0,0.6,0.1,1.1,0.1c1.4,0,2.6-0.5,2.6-1.9c0-1.4-1.2-1.9-2.6-1.9h-1.1V34.9L62.9,34.9z
	 M62.9,30.2h1.2c1.4,0,2.2-0.7,2.2-1.7c0-1.2-0.9-1.6-2.2-1.6c-0.6,0-1,0-1.2,0.1C62.9,27,62.9,30.2,62.9,30.2z M61.6,26.1
	c0.6-0.1,1.5-0.2,2.4-0.2c1.3,0,2.2,0.2,2.8,0.7c0.5,0.4,0.8,1,0.8,1.7c0,1-0.7,1.8-1.7,2.2l0,0c1,0.2,2.1,1,2.1,2.5
	c0,0.9-0.3,1.5-0.9,2c-0.7,0.6-1.9,0.9-3.5,0.9c-0.9,0-1.6-0.1-2-0.1C61.6,35.8,61.6,26.1,61.6,26.1z"/>
<path class="st0" d="M69.4,31c0-0.8,0-1.6-0.1-2.2h1.2v1.4h0.1c0.3-1,1.1-1.6,2-1.6c0.2,0,0.3,0,0.4,0v1.2c-0.1,0-0.3,0-0.5,0
	c-0.9,0-1.6,0.7-1.8,1.7c0,0.2-0.1,0.4-0.1,0.6v3.8h-1.3V31H69.4z"/>
<path class="st0" d="M74.7,32.4c0,1.6,0.9,2.7,2.2,2.7c1.3,0,2.2-1.2,2.2-2.8c0-1.2-0.6-2.7-2.2-2.7C75.4,29.6,74.7,31,74.7,32.4z
	 M80.6,32.3c0,2.6-1.9,3.8-3.7,3.8c-2,0-3.5-1.4-3.5-3.7c0-2.4,1.6-3.8,3.6-3.8C79.1,28.6,80.6,30.1,80.6,32.3z"/>
<path class="st0" d="M83.3,32.1L83.3,32.1c0.2-0.2,0.5-0.6,0.7-0.8l2.2-2.5h1.6L85,31.7l3.2,4.2h-1.6l-2.5-3.4l-0.7,0.7v2.7h-1.3
	V25.5h1.3L83.3,32.1L83.3,32.1z"/>
<path class="st0" d="M93.4,31.7c0-0.8-0.3-2.1-1.8-2.1c-1.3,0-1.9,1.2-2,2.1H93.4z M89.5,32.6c0,1.7,1.2,2.5,2.5,2.5
	c1,0,1.5-0.2,2-0.4l0.2,0.9c-0.5,0.2-1.3,0.5-2.4,0.5c-2.3,0-3.6-1.5-3.6-3.6s1.3-3.8,3.4-3.8c2.4,0,3,2,3,3.4c0,0.3,0,0.5,0,0.6
	h-5.1V32.6z"/>
<path class="st0" d="M96,31c0-0.8,0-1.6-0.1-2.2h1.2v1.4h0.1c0.3-1,1.1-1.6,2-1.6c0.2,0,0.3,0,0.4,0v1.2c-0.1,0-0.3,0-0.5,0
	c-0.9,0-1.6,0.7-1.8,1.7c0,0.2-0.1,0.4-0.1,0.6v3.8H96V31L96,31z"/>
<path class="st0" d="M104.5,32.3c-1.5,0-3.1,0.2-3.1,1.6c0,0.8,0.6,1.2,1.3,1.2c1,0,1.6-0.6,1.8-1.2c0-0.1,0.1-0.3,0.1-0.4
	L104.5,32.3L104.5,32.3z M105.8,34.2c0,0.6,0,1.2,0.1,1.7h-1.2l-0.1-0.9l0,0c-0.4,0.6-1.2,1.1-2.2,1.1c-1.5,0-2.2-1-2.2-2
	c0-1.7,1.6-2.7,4.4-2.6v-0.1c0-0.6-0.2-1.6-1.7-1.6c-0.7,0-1.4,0.2-1.9,0.5l-0.3-0.9c0.6-0.4,1.5-0.6,2.4-0.6c2.2,0,2.8,1.5,2.8,2.9
	L105.8,34.2L105.8,34.2z"/>
<path class="st0" d="M112.5,31.6c0-0.2,0-0.4-0.1-0.6c-0.2-0.7-0.9-1.4-1.9-1.4c-1.3,0-2.2,1-2.2,2.7c0,1.4,0.7,2.6,2.2,2.6
	c0.8,0,1.6-0.5,1.8-1.3c0.1-0.2,0.1-0.5,0.1-0.7L112.5,31.6L112.5,31.6z M113.9,34.9c0,1.6-0.3,2.6-1,3.3c-0.7,0.6-1.7,0.9-2.7,0.9
	c-0.9,0-1.8-0.2-2.4-0.6l0.3-1c0.5,0.3,1.2,0.6,2.2,0.6c1.4,0,2.4-0.7,2.4-2.5v-0.8l0,0c-0.4,0.7-1.2,1.2-2.3,1.2
	c-1.8,0-3.1-1.5-3.1-3.5c0-2.4,1.6-3.8,3.3-3.8c1.3,0,2,0.6,2.3,1.2l0,0l0.1-1.1h1.2c0,0.5-0.1,1.1-0.1,2v4.1H113.9z"/>
<path class="st0" d="M120.4,31.7c0-0.8-0.3-2.1-1.8-2.1c-1.3,0-1.9,1.2-2,2.1H120.4z M116.5,32.6c0,1.7,1.2,2.5,2.5,2.5
	c1,0,1.5-0.2,2-0.4l0.2,0.9c-0.5,0.2-1.3,0.5-2.4,0.5c-2.3,0-3.6-1.5-3.6-3.6s1.3-3.8,3.4-3.8c2.4,0,3,2,3,3.4c0,0.3,0,0.5,0,0.6
	h-5.1V32.6z"/>
<path class="st0" d="M46,11.9H32.2c-0.1-0.2,0.3-0.7,0.5-1c0.3-0.3,0.7-0.8,0.9-0.9c1.2-0.3,3.2,0,4.9,0h4.9
	c-0.1-2.7-0.7-4.6-2.5-5.8c-3.4-2.1-10.1-1.1-11.8,2c-1.3,2.4-1.2,6.8,0.1,9c1.8,3.3,6.6,3.9,11.5,3.2c0.2,0.5-0.5,1.5-0.7,2.2
	c-5.8,0.8-10.9-0.6-13-4.3C24.2,11.3,25.8,4,30.7,2c1.4-0.6,3.5-0.9,5-0.9C42.8,1.1,46.5,4,46,11.9"/>
<path class="st0" d="M61.9,1.1c-0.3,0.8-0.8,1.5-1.1,2.3c-3,0.1-5.4,0.9-7.5,1.9v15.2h-2.6V1.3h2.4v1.9C55.6,2.1,58.3,1.1,61.9,1.1"
	/>
<path class="st0" d="M83.7,20.5h-2.3v-2.7c-2.1,1.4-5.8,3-9.5,3c-4.2,0-7.9-1.6-8-6C63.7,9.1,70.4,8.6,76,9.1
	c0.2,0.4-0.5,1.2-0.8,1.7c-4.2-0.1-9.9,0-8.6,5.2c1.2,5,12.5,2.5,14.6-0.2c-0.5-4,1.2-9.9-1.6-11.6C76,2.2,69,3.6,65.4,4.8V2.6
	c5.3-2,17.5-3.4,18.2,3.9C84.1,10.7,83.4,15.6,83.7,20.5"/>
<path class="st0" d="M130.2,20.5h-2.4v-2.6c-0.7,0.2-1.2,0.7-2,1c-3.2,1.6-9.5,3-13.2,0.6c-1.6-1.1-2.5-3.1-2.3-5.3
	c0.4-5.5,7.3-5.6,12.9-5c0.1,0.4-0.6,1.2-0.8,1.7c-3.5-0.1-8.1-0.4-9.2,2.2c-1.5,3.3,1.2,5.5,4.1,5.7c4,0.3,8.3-1,10.3-2.9
	c-0.5-4.1,1.2-9.4-1.2-11.3c-3-2.4-11.1-1-14.5,0.2V2.5c4.2-1.5,13.5-2.7,16.8,0.6C131.8,6.3,129.5,14.5,130.2,20.5"/>
<path class="st0" d="M86.8,1.3h2.7c3,5.4,5.6,11.3,8.5,16.8c0.9-1.3,1.5-2.7,2.2-4.1c2.1-4.2,4.2-8.5,6.3-12.8h2.7
	c-2.4,4.6-4.8,9.5-7.3,14.3c-1.2,2.3-2.3,4.9-3.7,7.1c-1.4,2.3-3.3,4-6.3,4.4c-0.3-0.8-0.5-1.3-0.8-2.2c2.9-0.3,4.3-2.2,5.4-4.5
	C93.3,14.1,89.9,7.8,86.8,1.3"/>
<path class="st0" d="M6.9,18.4c5.2,0.2,9.5,0.2,11.3-3.1c1.3-2.3,1.5-6.8,0.3-9.6c-2-4.7-9-3.3-15.7-3.5v18.3H0.1V0.1
	c7.1,0.4,15.6-1.4,19.4,2.5c3.1,3.1,3.2,11.3,0.3,14.9c-2.5,3-7.3,3.4-13.2,3.1c-0.2,0.1-0.2,0.1-0.1-0.1
	C6.6,19.7,6.9,19.1,6.9,18.4"/>
</svg>
